<svg xmlns="http://www.w3.org/2000/svg" width="2108" height="314" viewBox="0 0 2108 314">
  <!-- left pad -->
  <rect x="40" y="20" width="764" height="250" fill="#f8f8f8" stroke="#000" stroke-width="1"/>
  <!-- right pad -->
  <rect x="1304" y="20" width="764" height="250" fill="#f8f8f8" stroke="#000" stroke-width="1"/>
  <!-- strap -->
  <rect x="804" y="70.0" width="500" height="150" fill="#ddd" stroke="#333" stroke-width="1"/>
  <circle cx="192.8" cy="32.5" r="2" fill="#c62828" /><circle cx="192.8" cy="257.5" r="2" fill="#c62828" /><circle cx="345.6" cy="32.5" r="2" fill="#c62828" /><circle cx="345.6" cy="257.5" r="2" fill="#c62828" /><circle cx="498.4" cy="32.5" r="2" fill="#c62828" /><circle cx="498.4" cy="257.5" r="2" fill="#c62828" /><circle cx="651.2" cy="32.5" r="2" fill="#c62828" /><circle cx="651.2" cy="257.5" r="2" fill="#c62828" /><circle cx="1456.8" cy="32.5" r="2" fill="#c62828" /><circle cx="1456.8" cy="257.5" r="2" fill="#c62828" /><circle cx="1609.6" cy="32.5" r="2" fill="#c62828" /><circle cx="1609.6" cy="257.5" r="2" fill="#c62828" /><circle cx="1762.4" cy="32.5" r="2" fill="#c62828" /><circle cx="1762.4" cy="257.5" r="2" fill="#c62828" /><circle cx="1915.2" cy="32.5" r="2" fill="#c62828" /><circle cx="1915.2" cy="257.5" r="2" fill="#c62828" />
  <text x="10" y="308" font-size="12" fill="#000">Combined pads: 1528 mm | strap_w=300mm length=1.0m</text>
</svg>