<svg xmlns="http://www.w3.org/2000/svg" width="880" height="314" viewBox="0 0 880 314">
  <!-- left pad -->
  <rect x="40" y="20" width="150" height="250" fill="#f8f8f8" stroke="#000" stroke-width="1"/>
  <!-- right pad -->
  <rect x="690" y="20" width="150" height="250" fill="#f8f8f8" stroke="#000" stroke-width="1"/>
  <!-- strap -->
  <rect x="190" y="70.0" width="500" height="150" fill="#ddd" stroke="#333" stroke-width="1"/>
  <circle cx="70.0" cy="32.5" r="2" fill="#c62828" /><circle cx="70.0" cy="257.5" r="2" fill="#c62828" /><circle cx="100.0" cy="32.5" r="2" fill="#c62828" /><circle cx="100.0" cy="257.5" r="2" fill="#c62828" /><circle cx="130.0" cy="32.5" r="2" fill="#c62828" /><circle cx="130.0" cy="257.5" r="2" fill="#c62828" /><circle cx="160.0" cy="32.5" r="2" fill="#c62828" /><circle cx="160.0" cy="257.5" r="2" fill="#c62828" /><circle cx="720.0" cy="32.5" r="2" fill="#c62828" /><circle cx="720.0" cy="257.5" r="2" fill="#c62828" /><circle cx="750.0" cy="32.5" r="2" fill="#c62828" /><circle cx="750.0" cy="257.5" r="2" fill="#c62828" /><circle cx="780.0" cy="32.5" r="2" fill="#c62828" /><circle cx="780.0" cy="257.5" r="2" fill="#c62828" /><circle cx="810.0" cy="32.5" r="2" fill="#c62828" /><circle cx="810.0" cy="257.5" r="2" fill="#c62828" />
  <text x="10" y="308" font-size="12" fill="#000">Combined pads: 300 mm | strap_w=300mm length=1.0m</text>
</svg>